<svg class="hero-bg-svg" viewBox="0 0 1920 1080" preserveAspectRatio="xMidYMid slice" xmlns="http://www.w3.org/2000/svg" xmlns:c2pa="http://c2pa.org/manifest"><metadata><c2pa:manifest>AAAWgmp1bWIAAAAeanVtZGMycGEAEQAQgAAAqgA4m3EDYzJwYQAAABZcanVtYgAAAEdqdW1kYzJtYQARABCAAACqADibcQN1cm46YzJwYTo1MjJlNmI0Ny1hMDdiLTRjMzEtYjZmYy05ZGRkOTBlYjFmYWUAAAADl2p1bWIAAAApanVtZGMyYXMAEQAQgAAAqgA4m3EDYzJwYS5hc3NlcnRpb25zAAAAALxqdW1iAAAARGp1bWRjYm9yABEAEIAAAKoAOJtxE2MycGEuaW5ncmVkaWVudC52MwAAAAAYYzJzaO9ruQG/eZfXFgPm6SxcwCAAAABwY2JvcqNpZGM6Zm9ybWF0bWltYWdlL3N2Zyt4bWxqaW5zdGFuY2VJRHgseG1wOmlpZDowMmVhNTJlYi02MzZhLTRiM2EtYTcwMS01ZDRhNjFjMjIwMWRscmVsYXRpb25zaGlwaHBhcmVudE9mAAAB4mp1bWIAAABBanVtZGNib3IAEQAQgAAAqgA4m3ETYzJwYS5hY3Rpb25zLnYyAAAAABhjMnNofObk2/vnG148BtUc5G5eQgAAAZljYm9yomdhY3Rpb25zgqJmYWN0aW9ua2MycGEub3BlbmVkanBhcmFtZXRlcnOha2luZ3JlZGllbnRzgaJjdXJseC1zZWxmI2p1bWJmPWMycGEuYXNzZXJ0aW9ucy9jMnBhLmluZ3JlZGllbnQudjNkaGFzaFggVR1s3BekITgOdqz54OpYhlKDMEcQvjIZ3fMpqsNmCQ+kZmFjdGlvbngdY29tLmFudGhyb3BpYy5jbGF1ZGUucHJvdmlkZWRqcGFyYW1ldGVyc6F4H2NvbS5hbnRocm9waWMub3JpZ2luLWNvbmZpZGVuY2VndW5rbm93bmtkZXNjcmlwdGlvbnhmQ2xhdWRlIHByb3ZpZGVkIHRoaXMgZmlsZSBhdCB0aGUgcmVxdWVzdCBvZiBhIHVzZXIgYW5kIG1heSBoYXZlIGNyZWF0ZWQgb3IgbW9kaWZpZWQgdGhlIGZpbGUgY29udGVudHMubXNvZnR3YXJlQWdlbnShZG5hbWVmQ2xhdWRlcmFsbEFjdGlvbnNJbmNsdWRlZPUAAADIanVtYgAAAEBqdW1kY2JvcgARABCAAACqADibcRNjMnBhLmhhc2guZGF0YQAAAAAYYzJzaBbXLR70ZRQ7WusK/wMN1SsAAACAY2JvcqVjYWxnZnNoYTI1NmNwYWRNAAAAAAAAAAAAAAAAAGRoYXNoWCBAkENsHHulm0LkHU6flSPbE88EymJu5ZmaRx6TDNb4+2RuYW1lbmp1bWJmIG1hbmlmZXN0amV4Y2x1c2lvbnOBomVzdGFydBi4Zmxlbmd0aBkeBAAAAj5qdW1iAAAAJ2p1bWRjMmNsABEAEIAAAKoAOJtxA2MycGEuY2xhaW0udjIAAAACD2Nib3KlY2FsZ2ZzaGEyNTZpc2lnbmF0dXJleE1zZWxmI2p1bWJmPS9jMnBhL3VybjpjMnBhOjUyMmU2YjQ3LWEwN2ItNGMzMS1iNmZjLTlkZGQ5MGViMWZhZS9jMnBhLnNpZ25hdHVyZWppbnN0YW5jZUlEeCx4bXA6aWlkOjQ3OGY5MTQyLTM0NzMtNDg3OC04ZjE5LTI4ZTJmNTU4NDRhZnJjcmVhdGVkX2Fzc2VydGlvbnODomN1cmx4LXNlbGYjanVtYmY9YzJwYS5hc3NlcnRpb25zL2MycGEuaW5ncmVkaWVudC52M2RoYXNoWCBVHWzcF6QhOA52rPng6liGUoMwRxC+Mhnd8ymqw2YJD6JjdXJseCpzZWxmI2p1bWJmPWMycGEuYXNzZXJ0aW9ucy9jMnBhLmFjdGlvbnMudjJkaGFzaFggrjhZnCl0+U1o3wEXufrA4SmKT8oMk+bupwQS7B7FzdiiY3VybHgpc2VsZiNqdW1iZj1jMnBhLmFzc2VydGlvbnMvYzJwYS5oYXNoLmRhdGFkaGFzaFggVjv6YSPv92YxsHOYVh1Qy/ietUoSTo5p1MpxpaVXEvl0Y2xhaW1fZ2VuZXJhdG9yX2luZm+jZG5hbWVvQW50aHJvcGljIEZpbGVzZ3ZlcnNpb25lMS4wLjBrc3BlY1ZlcnNpb25lMi40LjAAABA4anVtYgAAAChqdW1kYzJjcwARABCAAACqADibcQNjMnBhLnNpZ25hdHVyZQAAABAIY2JvctKEWQISogEmGCFZAgowggIGMIIBjaADAgECAhRA5aAK7sI50L64g/oGQgU9Z1UTADAKBggqhkjOPQQDAzBJMRcwFQYDVQQKEw5BbnRocm9waWMsIFBCQzEuMCwGA1UEAxMlQW50aHJvcGljIENvbnRlbnQgQ3JlZGVudGlhbHMgUm9vdCBDQTAeFw0yNjA4MDcxODQzNTZaFw0yODA4MDYxOTQzNTZaMEQxFzAVBgNVBAoTDkFudGhyb3BpYywgUEJDMSkwJwYDVQQDEyBBbnRocm9waWMgQ2xhdWRlIENvbnRlbnQgU2lnbmluZzBZMBMGByqGSM49AgEGCCqGSM49AwEHA0IABJh6CmvLUBgFFNU0vUKlOVtE6djd17L5SuwX0LemFisBM3dkd/3cyjxFA3Qo5S46fX0/ihY0VZ7mfb9KF703t5OjWDBWMA4GA1UdDwEB/wQEAwIHgDAVBgNVHSUEDjAMBgorBgEEAYPoXgIBMAwGA1UdEwEB/wQCMAAwHwYDVR0jBBgwFoAUzlHiBIFOZFsj+OPEz5o+nMHXXMIwCgYIKoZIzj0EAwMDZwAwZAIwMXMdFJ4BetLLVY7ORuE9noqbbAZOZn/aArXyTwFAZfKrPzxF2vPoJNf1+UCdg1XGAjBwX1zd9WGqYkqmL5SFqw1QySjr1zJfpJM9+1rdDwSPLMOPOjKuiXjoU/pUUeG9RwmhY3BhZFkNngAAAAAAAAAAAAAAAAAAAAAAAAAAAAAAAAAAAAAAAAAAAAAAAAAAAAAAAAAAAAAAAAAAAAAAAAAAAAAAAAAAAAAAAAAAAAAAAAAAAAAAAAAAAAAAAAAAAAAAAAAAAAAAAAAAAAAAAAAAAAAAAAAAAAAAAAAAAAAAAAAAAAAAAAAAAAAAAAAAAAAAAAAAAAAAAAAAAAAAAAAAAAAAAAAAAAAAAAAAAAAAAAAAAAAAAAAAAAAAAAAAAAAAAAAAAAAAAAAAAAAAAAAAAAAAAAAAAAAAAAAAAAAAAAAAAAAAAAAAAAAAAAAAAAAAAAAAAAAAAAAAAAAAAAAAAAAAAAAAAAAAAAAAAAAAAAAAAAAAAAAAAAAAAAAAAAAAAAAAAAAAAAAAAAAAAAAAAAAAAAAAAAAAAAAAAAAAAAAAAAAAAAAAAAAAAAAAAAAAAAAAAAAAAAAAAAAAAAAAAAAAAAAAAAAAAAAAAAAAAAAAAAAAAAAAAAAAAAAAAAAAAAAAAAAAAAAAAAAAAAAAAAAAAAAAAAAAAAAAAAAAAAAAAAAAAAAAAAAAAAAAAAAAAAAAAAAAAAAAAAAAAAAAAAAAAAAAAAAAAAAAAAAAAAAAAAAAAAAAAAAAAAAAAAAAAAAAAAAAAAAAAAAAAAAAAAAAAAAAAAAAAAAAAAAAAAAAAAAAAAAAAAAAAAAAAAAAAAAAAAAAAAAAAAAAAAAAAAAAAAAAAAAAAAAAAAAAAAAAAAAAAAAAAAAAAAAAAAAAAAAAAAAAAAAAAAAAAAAAAAAAAAAAAAAAAAAAAAAAAAAAAAAAAAAAAAAAAAAAAAAAAAAAAAAAAAAAAAAAAAAAAAAAAAAAAAAAAAAAAAAAAAAAAAAAAAAAAAAAAAAAAAAAAAAAAAAAAAAAAAAAAAAAAAAAAAAAAAAAAAAAAAAAAAAAAAAAAAAAAAAAAAAAAAAAAAAAAAAAAAAAAAAAAAAAAAAAAAAAAAAAAAAAAAAAAAAAAAAAAAAAAAAAAAAAAAAAAAAAAAAAAAAAAAAAAAAAAAAAAAAAAAAAAAAAAAAAAAAAAAAAAAAAAAAAAAAAAAAAAAAAAAAAAAAAAAAAAAAAAAAAAAAAAAAAAAAAAAAAAAAAAAAAAAAAAAAAAAAAAAAAAAAAAAAAAAAAAAAAAAAAAAAAAAAAAAAAAAAAAAAAAAAAAAAAAAAAAAAAAAAAAAAAAAAAAAAAAAAAAAAAAAAAAAAAAAAAAAAAAAAAAAAAAAAAAAAAAAAAAAAAAAAAAAAAAAAAAAAAAAAAAAAAAAAAAAAAAAAAAAAAAAAAAAAAAAAAAAAAAAAAAAAAAAAAAAAAAAAAAAAAAAAAAAAAAAAAAAAAAAAAAAAAAAAAAAAAAAAAAAAAAAAAAAAAAAAAAAAAAAAAAAAAAAAAAAAAAAAAAAAAAAAAAAAAAAAAAAAAAAAAAAAAAAAAAAAAAAAAAAAAAAAAAAAAAAAAAAAAAAAAAAAAAAAAAAAAAAAAAAAAAAAAAAAAAAAAAAAAAAAAAAAAAAAAAAAAAAAAAAAAAAAAAAAAAAAAAAAAAAAAAAAAAAAAAAAAAAAAAAAAAAAAAAAAAAAAAAAAAAAAAAAAAAAAAAAAAAAAAAAAAAAAAAAAAAAAAAAAAAAAAAAAAAAAAAAAAAAAAAAAAAAAAAAAAAAAAAAAAAAAAAAAAAAAAAAAAAAAAAAAAAAAAAAAAAAAAAAAAAAAAAAAAAAAAAAAAAAAAAAAAAAAAAAAAAAAAAAAAAAAAAAAAAAAAAAAAAAAAAAAAAAAAAAAAAAAAAAAAAAAAAAAAAAAAAAAAAAAAAAAAAAAAAAAAAAAAAAAAAAAAAAAAAAAAAAAAAAAAAAAAAAAAAAAAAAAAAAAAAAAAAAAAAAAAAAAAAAAAAAAAAAAAAAAAAAAAAAAAAAAAAAAAAAAAAAAAAAAAAAAAAAAAAAAAAAAAAAAAAAAAAAAAAAAAAAAAAAAAAAAAAAAAAAAAAAAAAAAAAAAAAAAAAAAAAAAAAAAAAAAAAAAAAAAAAAAAAAAAAAAAAAAAAAAAAAAAAAAAAAAAAAAAAAAAAAAAAAAAAAAAAAAAAAAAAAAAAAAAAAAAAAAAAAAAAAAAAAAAAAAAAAAAAAAAAAAAAAAAAAAAAAAAAAAAAAAAAAAAAAAAAAAAAAAAAAAAAAAAAAAAAAAAAAAAAAAAAAAAAAAAAAAAAAAAAAAAAAAAAAAAAAAAAAAAAAAAAAAAAAAAAAAAAAAAAAAAAAAAAAAAAAAAAAAAAAAAAAAAAAAAAAAAAAAAAAAAAAAAAAAAAAAAAAAAAAAAAAAAAAAAAAAAAAAAAAAAAAAAAAAAAAAAAAAAAAAAAAAAAAAAAAAAAAAAAAAAAAAAAAAAAAAAAAAAAAAAAAAAAAAAAAAAAAAAAAAAAAAAAAAAAAAAAAAAAAAAAAAAAAAAAAAAAAAAAAAAAAAAAAAAAAAAAAAAAAAAAAAAAAAAAAAAAAAAAAAAAAAAAAAAAAAAAAAAAAAAAAAAAAAAAAAAAAAAAAAAAAAAAAAAAAAAAAAAAAAAAAAAAAAAAAAAAAAAAAAAAAAAAAAAAAAAAAAAAAAAAAAAAAAAAAAAAAAAAAAAAAAAAAAAAAAAAAAAAAAAAAAAAAAAAAAAAAAAAAAAAAAAAAAAAAAAAAAAAAAAAAAAAAAAAAAAAAAAAAAAAAAAAAAAAAAAAAAAAAAAAAAAAAAAAAAAAAAAAAAAAAAAAAAAAAAAAAAAAAAAAAAAAAAAAAAAAAAAAAAAAAAAAAAAAAAAAAAAAAAAAAAAAAAAAAAAAAAAAAAAAAAAAAAAAAAAAAAAAAAAAAAAAAAAAAAAAAAAAAAAAAAAAAAAAAAAAAAAAAAAAAAAAAAAAAAAAAAAAAAAAAAAAAAAAAAAAAAAAAAAAAAAAAAAAAAAAAAAAAAAAAAAAAAAAAAAAAAAAAAAAAAAAAAAAAAAAAAAAAAAAAAAAAAAAAAAAAAAAAAAAAAAAAAAAAAAAAAAAAAAAAAAAAAAAAAAAAAAAAAAAAAAAAAAAAAAAAAAAAAAAAAAAAAAAAAAAAAAAAAAAAAAAAAAAAAAAAAAAAAAAAAAAAAAAAAAAAAAAAAAAAAAAAAAAAAAAAAAAAAAAAAAAAAAAAAAAAAAAAAAAAAAAAAAAAAAAAAAAAAAAAAAAAAAAAAAAAAAAAAAAAAAAAAAAAAAAAAAAAAAAAAAAAAAAAAAAAAAAAAAAAAAAAAAAAAAAAAAAAAAAAAAAAAAAAAAAAAAAAAAAAAAAAAAAAAAAAAAAAAAAAAAAAAAAAAAAAAAAAAAAAAAAAAAAAAAAAAAAAAAAAAAAAAAAAAAAAAAAAAAAAAAAAAAAAAAAAAAAAAAAAAAAAAAAAAAAAAAAAAAAAAAAAAAAAAAAAAAAAAAAAAAAAAAAAAAAAAAAAAAAAAAAAAAAAAAAAAAAAAAAAAAAAAAAAAAAAAAAAAAAAAAAAAAAAAAAAAAAAAAAAAAAAAAAAAAAAAAAAAAAAAAAAAAAAAAAAAAAAAAAAAAAAAAAAAAAAAAAAAAAAAAAAAAAAAAAAAAAAAAAAAAAAAAAAAAAAAAAAAAAAAAAAAAAAAAAAAAAAAAAAAAAAAAAAAAAAAAAAAAAAAAAAAAAAAAAAAAAAAAAAAAAAAAAAAAAAAAAAAAAAAAAAAAAAAAAAAAAAAAAAAAAAAAAAAAAAAAAAAAAAAAAAAAAAAAAAAAAAAAAAAAAAAAAAAAAAAAAAAAAAAAAAAAAAAAAAAAAAAAAAAAAAAAAAAAAAAAAAAAAAAAAAAAAAAAAAAAAAAAAAAAAAAAAAAAAAAAAAAAAAAAAAAAAAAAAAAAAAAAAAAAAAAAAAAAAAAAAAAAAAAAAAAAAAAAAAAAAAAAAAAAAAAAAAAAAAAAAAAAAAAAAAAAAAAAAAAAAAAAAAAAAAAAAAAAAAAAAAAAAAAAAAAAAAAAAAAAAAAAAAAAAAAAAAAAAAAAAAAAAAAAAAAAAAAAAAAAAAAAAAAAAAAAAAAAAAAAAAAAAAAAAAAAAAAAAAAAAAAAAAAAAAAAAAAAAAAAAAAAAAAAAAAAAAAAAAAAAAAAAAAAAAAAAAAAAAAAAAAAAAAAAAAAAAAAAAAAAAAAAAAAAAAAAAAAAAAAAAAAAAAAAAAAAAAAAAAAAAAAAAAAAAAAAAAAAAAAAAAAAAAAAAAAAAAAAAAAAAAAAAAAAAAAAAAAAAAAAAAAAAAAAAAAAAAAAAAAAAAAAAAAAAAAAAAAAAAAAAAAAAAAAAAAAAAAAAAAAAAAAAAAAAAAAAAAAAAAAAAAAAAAAAAAAAAAAAAAAAAAAAAAAAAAAAAAAAAAAAAAAAAAAAAAAAAAAAAAAAAAAAAAAAAAAAAAAAAAAAAAAAAAAAAAAAAAAAAAAAAAAAAAAAAAAAAAAAAAAAAAAAAAAAAAAAAAAAAAAAAAAAAAAAAAAAAAAAAAAAAAAAAAAAAAAAAAAAAAAAAAAAAAAAAAAAAAAAAAAAAAAAAAAAAAAAAAAAAAAAAAAAAAAAAAAAAAAAAAAAAAAAAAAAAAAAAAAAAAAAAAAAAAAAAAAAAAAAAAAAAAAAAAAAAAAAAAAAAAAAAAAAAAAAAAAAAAAAAAAAAAAAAAAAAAAAAAPZYQK8HlpkWsj2ylkHxMQ5Hz5rYOdMbd0N5rm/2FkTdKOWLIpbCLqFTfdw9A5n9SZEkw84uStXXZW1JBU/MWth1V28=</c2pa:manifest></metadata>
  <defs>
    <radialGradient id="space" cx="50%" cy="45%" r="90%">
      <stop offset="0" stop-color="#1b1b20"/>
      <stop offset="50%" stop-color="#0f0f12"/>
      <stop offset="100%" stop-color="#050506"/>
    </radialGradient>
    <filter id="nebulaBlur" x="-50%" y="-50%" width="200%" height="200%">
      <feGaussianBlur stdDeviation="70"/>
    </filter>
    <filter id="nebulaBlurSoft" x="-50%" y="-50%" width="200%" height="200%">
      <feGaussianBlur stdDeviation="110"/>
    </filter>
    <radialGradient id="coreWarm" cx="50%" cy="48%" r="40%">
      <stop offset="0" stop-color="#e8d9b0" stop-opacity="0.22"/>
      <stop offset="55%" stop-color="#e8d9b0" stop-opacity="0.06"/>
      <stop offset="100%" stop-color="#e8d9b0" stop-opacity="0"/>
    </radialGradient>
    <radialGradient id="whiteGlow" cx="50%" cy="46%" r="45%">
      <stop offset="0" stop-color="#ffffff" stop-opacity="0.14"/>
      <stop offset="100%" stop-color="#ffffff" stop-opacity="0"/>
    </radialGradient>
  </defs>

  <!-- Вся сцена внутри одной группы — на неё вешаем медленный дрейф -->
  <g class="hero-scene">
    <rect width="1920" height="1080" fill="url(#space)"/>

    <g filter="url(#nebulaBlurSoft)" opacity="0.55">
      <ellipse cx="220"  cy="880" rx="420" ry="150" fill="#3a3a42"/>
      <ellipse cx="640"  cy="680" rx="480" ry="170" fill="#46464e"/>
      <ellipse cx="1080" cy="470" rx="520" ry="190" fill="#3e3e46"/>
      <ellipse cx="1500" cy="260" rx="460" ry="170" fill="#38383f"/>
      <ellipse cx="1850" cy="90"  rx="380" ry="140" fill="#2e2e34"/>
    </g>

    <g filter="url(#nebulaBlur)" opacity="0.5">
      <ellipse cx="760"  cy="560" rx="260" ry="90" fill="#5a5a64"/>
      <ellipse cx="1080" cy="440" rx="300" ry="100" fill="#62626c"/>
      <ellipse cx="1360" cy="340" rx="240" ry="85" fill="#565660"/>
    </g>

    <rect class="hero-glow-warm" width="1920" height="1080" fill="url(#coreWarm)"/>
    <rect class="hero-glow-white" width="1920" height="1080" fill="url(#whiteGlow)"/>

    <g fill="#f4f4f2"><circle cx="1227.7" cy="27.0" r="0.59" opacity="0.24"/><circle cx="1414.0" cy="730.8" r="1.02" opacity="0.18"/><circle cx="810.1" cy="32.2" r="0.55" opacity="0.35"/><circle cx="50.9" cy="214.7" r="0.85" opacity="0.37"/><circle cx="423.2" cy="636.4" r="0.97" opacity="0.15"/><circle cx="1547.2" cy="754.0" r="0.64" opacity="0.21"/><circle cx="1837.8" cy="363.5" r="0.46" opacity="0.19"/><circle cx="1627.2" cy="652.0" r="0.96" opacity="0.44"/><circle cx="1029.6" cy="1051.0" r="0.66" opacity="0.37"/><circle cx="1592.5" cy="668.0" r="1.0" opacity="0.38"/><circle cx="1352.8" cy="49.5" r="0.56" opacity="0.27"/><circle cx="153.2" cy="251.4" r="0.47" opacity="0.26"/><circle cx="1220.5" cy="394.0" r="0.66" opacity="0.23"/><circle cx="512.6" cy="1011.6" r="0.85" opacity="0.39"/><circle cx="328.6" cy="787.5" r="0.51" opacity="0.3"/><circle cx="1899.9" cy="691.2" r="0.79" opacity="0.42"/><circle cx="1618.3" cy="838.1" r="0.56" opacity="0.16"/><circle cx="605.7" cy="289.2" r="0.55" opacity="0.53"/><circle cx="1682.6" cy="339.9" r="0.86" opacity="0.31"/><circle cx="1755.9" cy="495.6" r="0.59" opacity="0.25"/><circle cx="1077.8" cy="283.8" r="0.81" opacity="0.51"/><circle cx="766.8" cy="236.9" r="1.1" opacity="0.35"/><circle cx="174.5" cy="50.9" r="0.48" opacity="0.4"/><circle cx="1520.8" cy="455.9" r="0.44" opacity="0.3"/><circle cx="1912.6" cy="571.4" r="1.08" opacity="0.49"/><circle cx="22.0" cy="778.4" r="0.88" opacity="0.36"/><circle cx="512.3" cy="692.2" r="0.48" opacity="0.32"/><circle cx="871.1" cy="1030.1" r="1.01" opacity="0.26"/><circle cx="961.1" cy="192.9" r="1.04" opacity="0.5"/><circle cx="573.0" cy="690.1" r="0.83" opacity="0.21"/><circle cx="1464.0" cy="582.5" r="0.95" opacity="0.36"/><circle cx="1.1" cy="350.1" r="0.41" opacity="0.52"/><circle cx="1687.1" cy="898.2" r="0.62" opacity="0.17"/><circle cx="1685.8" cy="1022.7" r="0.46" opacity="0.34"/><circle cx="132.9" cy="821.5" r="0.94" opacity="0.2"/><circle cx="912.5" cy="593.8" r="0.59" opacity="0.5"/><circle cx="812.4" cy="228.7" r="0.78" opacity="0.44"/><circle cx="386.2" cy="336.7" r="1.1" opacity="0.41"/><circle cx="841.2" cy="559.0" r="0.48" opacity="0.24"/><circle cx="649.1" cy="635.4" r="0.56" opacity="0.24"/><circle cx="136.3" cy="681.6" r="0.56" opacity="0.51"/><circle cx="1650.5" cy="76.5" r="0.57" opacity="0.42"/><circle cx="411.3" cy="142.9" r="1.05" opacity="0.38"/><circle cx="907.5" cy="847.4" r="0.97" opacity="0.23"/><circle cx="186.1" cy="465.5" r="0.7" opacity="0.34"/><circle cx="1399.8" cy="727.2" r="1.09" opacity="0.19"/><circle cx="773.0" cy="366.4" r="1.0" opacity="0.25"/><circle cx="365.2" cy="484.5" r="0.7" opacity="0.26"/><circle cx="479.6" cy="997.1" r="0.71" opacity="0.49"/><circle cx="1056.6" cy="54.6" r="1.1" opacity="0.48"/><circle cx="1860.5" cy="1000.5" r="0.99" opacity="0.22"/><circle cx="932.4" cy="230.8" r="0.68" opacity="0.17"/><circle cx="727.6" cy="1064.1" r="0.59" opacity="0.46"/><circle cx="873.6" cy="456.8" r="1.07" opacity="0.55"/><circle cx="1067.1" cy="775.9" r="0.51" opacity="0.27"/><circle cx="1859.9" cy="625.5" r="0.78" opacity="0.45"/><circle cx="109.8" cy="630.9" r="0.75" opacity="0.49"/><circle cx="302.3" cy="1037.6" r="0.46" opacity="0.22"/><circle cx="1142.5" cy="729.2" r="0.56" opacity="0.2"/><circle cx="1709.4" cy="265.9" r="0.82" opacity="0.4"/><circle cx="804.9" cy="630.4" r="0.77" opacity="0.52"/><circle cx="392.2" cy="773.5" r="0.57" opacity="0.31"/><circle cx="1289.6" cy="324.0" r="0.62" opacity="0.45"/><circle cx="139.3" cy="494.9" r="1.1" opacity="0.55"/><circle cx="140.7" cy="230.2" r="0.59" opacity="0.52"/><circle cx="1691.3" cy="949.6" r="0.66" opacity="0.21"/><circle cx="1600.8" cy="759.8" r="0.83" opacity="0.54"/><circle cx="1255.6" cy="8.4" r="0.97" opacity="0.27"/><circle cx="1273.7" cy="1014.0" r="0.49" opacity="0.2"/><circle cx="205.5" cy="597.5" r="0.59" opacity="0.39"/><circle cx="1377.8" cy="219.9" r="0.84" opacity="0.26"/><circle cx="938.0" cy="977.8" r="0.99" opacity="0.19"/><circle cx="813.3" cy="298.8" r="0.4" opacity="0.46"/><circle cx="1223.3" cy="282.9" r="0.92" opacity="0.37"/><circle cx="821.2" cy="10.4" r="0.45" opacity="0.5"/><circle cx="1735.5" cy="589.2" r="0.98" opacity="0.38"/><circle cx="284.3" cy="137.6" r="0.62" opacity="0.51"/><circle cx="1528.6" cy="929.6" r="1.03" opacity="0.23"/><circle cx="479.1" cy="111.0" r="0.95" opacity="0.5"/><circle cx="780.2" cy="670.3" r="0.51" opacity="0.52"/><circle cx="1660.0" cy="1054.3" r="0.97" opacity="0.5"/><circle cx="47.6" cy="795.5" r="0.63" opacity="0.52"/><circle cx="1540.3" cy="933.2" r="0.97" opacity="0.26"/><circle cx="1511.8" cy="116.7" r="1.01" opacity="0.49"/><circle cx="427.1" cy="881.9" r="0.72" opacity="0.27"/><circle cx="1527.1" cy="245.8" r="0.42" opacity="0.23"/><circle cx="630.3" cy="933.5" r="1.08" opacity="0.26"/><circle cx="1231.6" cy="431.7" r="1.09" opacity="0.36"/><circle cx="1803.3" cy="124.6" r="1.08" opacity="0.22"/><circle cx="1848.1" cy="286.7" r="0.48" opacity="0.32"/><circle cx="1398.8" cy="338.8" r="0.82" opacity="0.35"/><circle cx="739.6" cy="622.7" r="0.58" opacity="0.43"/><circle cx="3.2" cy="999.6" r="0.78" opacity="0.44"/><circle cx="1424.5" cy="724.3" r="0.65" opacity="0.18"/><circle cx="1275.3" cy="356.6" r="0.62" opacity="0.49"/><circle cx="1381.9" cy="324.3" r="0.62" opacity="0.31"/><circle cx="772.6" cy="319.3" r="0.49" opacity="0.32"/><circle cx="1805.5" cy="731.5" r="1.03" opacity="0.4"/><circle cx="577.8" cy="591.8" r="0.4" opacity="0.26"/><circle cx="825.4" cy="626.4" r="0.86" opacity="0.34"/><circle cx="848.9" cy="230.8" r="0.73" opacity="0.51"/><circle cx="1528.4" cy="183.3" r="0.46" opacity="0.36"/><circle cx="1215.2" cy="362.0" r="0.97" opacity="0.45"/><circle cx="1291.8" cy="242.6" r="0.54" opacity="0.16"/><circle cx="470.1" cy="513.1" r="0.99" opacity="0.18"/><circle cx="795.7" cy="680.1" r="0.54" opacity="0.43"/><circle cx="949.2" cy="263.5" r="0.86" opacity="0.15"/><circle cx="1441.9" cy="831.6" r="0.47" opacity="0.32"/><circle cx="337.7" cy="1034.6" r="0.76" opacity="0.17"/><circle cx="478.5" cy="916.2" r="0.72" opacity="0.47"/><circle cx="1281.7" cy="1066.9" r="0.82" opacity="0.53"/><circle cx="1711.5" cy="661.7" r="0.9" opacity="0.35"/><circle cx="1594.7" cy="591.7" r="1.03" opacity="0.45"/><circle cx="911.4" cy="279.9" r="0.57" opacity="0.41"/><circle cx="1470.4" cy="563.0" r="0.84" opacity="0.26"/><circle cx="148.8" cy="308.6" r="0.59" opacity="0.28"/><circle cx="1037.1" cy="149.4" r="0.56" opacity="0.43"/><circle cx="1356.3" cy="69.4" r="0.69" opacity="0.37"/><circle cx="798.3" cy="223.4" r="0.69" opacity="0.51"/><circle cx="1121.4" cy="751.2" r="1.0" opacity="0.46"/><circle cx="730.3" cy="6.4" r="0.65" opacity="0.45"/><circle cx="1638.6" cy="1029.7" r="0.69" opacity="0.45"/><circle cx="1048.6" cy="651.5" r="0.55" opacity="0.24"/><circle cx="836.8" cy="31.3" r="0.64" opacity="0.42"/><circle cx="776.3" cy="178.2" r="0.73" opacity="0.2"/><circle cx="1194.7" cy="29.1" r="0.68" opacity="0.38"/><circle cx="52.0" cy="694.2" r="0.49" opacity="0.33"/><circle cx="96.5" cy="409.4" r="0.55" opacity="0.28"/><circle cx="1461.6" cy="409.5" r="0.93" opacity="0.48"/><circle cx="484.4" cy="88.5" r="0.41" opacity="0.37"/><circle cx="1919.8" cy="378.0" r="0.86" opacity="0.46"/><circle cx="1251.4" cy="814.6" r="1.06" opacity="0.23"/><circle cx="39.1" cy="164.6" r="0.49" opacity="0.42"/><circle cx="1082.8" cy="235.4" r="0.89" opacity="0.46"/><circle cx="322.2" cy="655.8" r="0.92" opacity="0.2"/><circle cx="1573.1" cy="1041.9" r="0.48" opacity="0.16"/><circle cx="599.0" cy="731.5" r="1.07" opacity="0.31"/><circle cx="1372.8" cy="82.1" r="0.88" opacity="0.4"/><circle cx="195.7" cy="834.3" r="1.0" opacity="0.39"/><circle cx="232.4" cy="1062.6" r="0.95" opacity="0.29"/><circle cx="822.5" cy="400.2" r="0.75" opacity="0.29"/><circle cx="1631.2" cy="888.1" r="0.47" opacity="0.53"/><circle cx="1220.3" cy="895.0" r="0.9" opacity="0.32"/><circle cx="1408.9" cy="1042.7" r="0.59" opacity="0.47"/><circle cx="1033.3" cy="522.2" r="0.7" opacity="0.44"/><circle cx="515.3" cy="919.9" r="0.98" opacity="0.18"/><circle cx="1692.7" cy="263.4" r="0.73" opacity="0.39"/><circle cx="727.7" cy="31.0" r="1.0" opacity="0.22"/><circle cx="407.3" cy="861.7" r="0.64" opacity="0.5"/><circle cx="1346.3" cy="298.4" r="0.41" opacity="0.53"/><circle cx="164.4" cy="777.7" r="0.74" opacity="0.45"/><circle cx="1326.0" cy="697.6" r="0.74" opacity="0.47"/><circle cx="178.7" cy="239.3" r="0.88" opacity="0.27"/><circle cx="1116.6" cy="511.1" r="0.77" opacity="0.32"/><circle cx="1432.2" cy="357.3" r="0.89" opacity="0.26"/><circle cx="482.7" cy="130.3" r="0.53" opacity="0.2"/><circle cx="1028.9" cy="823.2" r="0.53" opacity="0.24"/><circle cx="929.7" cy="782.6" r="1.08" opacity="0.36"/><circle cx="543.4" cy="108.6" r="0.54" opacity="0.24"/><circle cx="344.5" cy="15.3" r="0.77" opacity="0.26"/><circle cx="1870.6" cy="597.6" r="0.89" opacity="0.2"/><circle cx="1667.4" cy="530.1" r="1.01" opacity="0.38"/><circle cx="901.2" cy="475.7" r="0.53" opacity="0.17"/><circle cx="1806.8" cy="515.9" r="0.98" opacity="0.31"/><circle cx="142.2" cy="679.8" r="0.44" opacity="0.21"/><circle cx="1080.7" cy="328.1" r="1.1" opacity="0.2"/><circle cx="1467.7" cy="654.8" r="0.95" opacity="0.24"/><circle cx="1003.3" cy="486.6" r="0.71" opacity="0.49"/><circle cx="1900.9" cy="329.8" r="0.83" opacity="0.39"/><circle cx="1421.0" cy="1023.4" r="0.55" opacity="0.23"/><circle cx="1268.0" cy="169.6" r="0.52" opacity="0.18"/><circle cx="5.1" cy="486.5" r="0.82" opacity="0.27"/><circle cx="444.4" cy="763.5" r="0.89" opacity="0.33"/><circle cx="1319.8" cy="997.8" r="0.95" opacity="0.4"/><circle cx="1269.5" cy="1008.4" r="0.7" opacity="0.37"/><circle cx="1243.5" cy="981.1" r="0.98" opacity="0.18"/><circle cx="318.6" cy="332.2" r="0.92" opacity="0.38"/><circle cx="554.1" cy="134.3" r="0.88" opacity="0.43"/><circle cx="1809.9" cy="540.5" r="0.75" opacity="0.18"/><circle cx="76.5" cy="466.6" r="0.63" opacity="0.25"/><circle cx="175.3" cy="1038.9" r="0.99" opacity="0.38"/><circle cx="1825.5" cy="1079.5" r="0.87" opacity="0.26"/><circle cx="77.2" cy="816.8" r="0.73" opacity="0.41"/><circle cx="1758.9" cy="196.0" r="0.81" opacity="0.4"/><circle cx="944.1" cy="98.5" r="0.64" opacity="0.28"/><circle cx="1286.7" cy="926.4" r="0.63" opacity="0.43"/><circle cx="553.4" cy="1020.8" r="0.97" opacity="0.37"/><circle cx="873.3" cy="339.7" r="0.63" opacity="0.54"/><circle cx="776.0" cy="555.8" r="1.09" opacity="0.41"/><circle cx="1041.8" cy="446.3" r="0.53" opacity="0.29"/><circle cx="1452.4" cy="675.4" r="0.93" opacity="0.23"/><circle cx="1054.5" cy="1001.9" r="0.71" opacity="0.43"/><circle cx="233.1" cy="1051.0" r="0.83" opacity="0.25"/><circle cx="304.1" cy="594.9" r="0.79" opacity="0.19"/><circle cx="1905.1" cy="986.0" r="0.72" opacity="0.2"/><circle cx="1597.7" cy="538.2" r="0.9" opacity="0.35"/><circle cx="525.0" cy="901.5" r="1.09" opacity="0.25"/><circle cx="1058.4" cy="414.3" r="1.05" opacity="0.35"/><circle cx="1688.3" cy="933.1" r="0.59" opacity="0.47"/><circle cx="796.7" cy="1009.0" r="0.76" opacity="0.48"/><circle cx="543.1" cy="322.4" r="0.81" opacity="0.55"/><circle cx="940.1" cy="160.5" r="0.78" opacity="0.29"/><circle cx="1059.7" cy="586.9" r="0.72" opacity="0.28"/><circle cx="362.2" cy="753.3" r="0.8" opacity="0.24"/><circle cx="1489.0" cy="47.1" r="0.92" opacity="0.43"/><circle cx="1557.9" cy="417.0" r="0.86" opacity="0.48"/><circle cx="1883.2" cy="535.0" r="0.43" opacity="0.35"/><circle cx="1133.1" cy="939.3" r="1.01" opacity="0.33"/><circle cx="1009.8" cy="493.5" r="0.91" opacity="0.31"/><circle cx="1257.2" cy="166.7" r="0.73" opacity="0.54"/><circle cx="650.0" cy="748.1" r="0.85" opacity="0.49"/><circle cx="1636.5" cy="928.1" r="0.67" opacity="0.28"/><circle cx="1379.9" cy="820.2" r="1.01" opacity="0.16"/><circle cx="131.4" cy="681.7" r="1.04" opacity="0.55"/><circle cx="1433.8" cy="468.7" r="0.47" opacity="0.4"/><circle cx="1675.4" cy="479.2" r="0.89" opacity="0.51"/><circle cx="88.3" cy="859.8" r="0.61" opacity="0.3"/><circle cx="279.5" cy="573.7" r="0.8" opacity="0.47"/><circle cx="326.4" cy="85.3" r="1.01" opacity="0.4"/><circle cx="462.4" cy="985.9" r="0.5" opacity="0.33"/></g>
    <g fill="#f4f4f2"><circle class="star-twinkle" cx="487.6" cy="275.8" r="1.11" opacity="0.68"/><circle class="star-twinkle" cx="1730.3" cy="731.8" r="1.23" opacity="0.55"/><circle class="star-twinkle" cx="663.5" cy="634.6" r="1.61" opacity="0.55"/><circle class="star-twinkle" cx="480.2" cy="912.9" r="1.26" opacity="0.53"/><circle class="star-twinkle" cx="927.8" cy="256.2" r="1.56" opacity="0.6"/><circle class="star-twinkle" cx="1906.0" cy="318.8" r="1.88" opacity="0.63"/><circle class="star-twinkle" cx="527.0" cy="611.2" r="1.65" opacity="0.66"/><circle class="star-twinkle" cx="94.2" cy="654.9" r="1.5" opacity="0.72"/><circle class="star-twinkle" cx="549.5" cy="862.8" r="1.59" opacity="0.52"/><circle class="star-twinkle" cx="1222.3" cy="670.6" r="1.64" opacity="0.65"/><circle class="star-twinkle" cx="1265.6" cy="905.4" r="1.6" opacity="0.72"/><circle class="star-twinkle" cx="1241.0" cy="333.6" r="1.45" opacity="0.6"/><circle class="star-twinkle" cx="1406.1" cy="97.3" r="1.34" opacity="0.66"/><circle class="star-twinkle" cx="337.2" cy="142.7" r="1.53" opacity="0.74"/><circle class="star-twinkle" cx="1019.2" cy="986.6" r="1.76" opacity="0.49"/><circle class="star-twinkle" cx="1583.4" cy="520.4" r="1.75" opacity="0.66"/><circle class="star-twinkle" cx="650.3" cy="124.4" r="1.87" opacity="0.45"/><circle class="star-twinkle" cx="1855.7" cy="929.0" r="1.68" opacity="0.74"/><circle class="star-twinkle" cx="1857.2" cy="869.0" r="1.39" opacity="0.68"/><circle class="star-twinkle" cx="26.7" cy="579.5" r="1.46" opacity="0.64"/><circle class="star-twinkle" cx="1290.9" cy="631.3" r="1.76" opacity="0.73"/><circle class="star-twinkle" cx="208.0" cy="252.5" r="1.12" opacity="0.71"/><circle class="star-twinkle" cx="1077.9" cy="988.5" r="1.28" opacity="0.42"/><circle class="star-twinkle" cx="1581.8" cy="982.1" r="1.34" opacity="0.54"/><circle class="star-twinkle" cx="268.4" cy="1022.0" r="1.34" opacity="0.57"/><circle class="star-twinkle" cx="186.6" cy="958.2" r="1.21" opacity="0.56"/><circle class="star-twinkle" cx="1287.3" cy="802.6" r="1.86" opacity="0.55"/><circle class="star-twinkle" cx="1425.2" cy="166.9" r="1.43" opacity="0.43"/><circle class="star-twinkle" cx="939.5" cy="440.8" r="1.86" opacity="0.41"/><circle class="star-twinkle" cx="711.4" cy="478.9" r="1.86" opacity="0.7"/><circle class="star-twinkle" cx="190.8" cy="740.5" r="1.54" opacity="0.74"/><circle class="star-twinkle" cx="688.7" cy="430.0" r="1.25" opacity="0.44"/><circle class="star-twinkle" cx="1628.2" cy="491.1" r="1.63" opacity="0.62"/><circle class="star-twinkle" cx="1146.5" cy="23.1" r="1.73" opacity="0.49"/><circle class="star-twinkle" cx="241.8" cy="609.7" r="1.15" opacity="0.67"/><circle class="star-twinkle" cx="397.7" cy="233.2" r="1.8" opacity="0.51"/><circle class="star-twinkle" cx="283.3" cy="972.6" r="1.1" opacity="0.7"/><circle class="star-twinkle" cx="277.8" cy="140.4" r="1.3" opacity="0.46"/><circle class="star-twinkle" cx="1269.2" cy="27.8" r="1.11" opacity="0.68"/><circle class="star-twinkle" cx="456.8" cy="349.7" r="1.24" opacity="0.42"/><circle class="star-twinkle" cx="1424.1" cy="568.2" r="1.7" opacity="0.57"/><circle class="star-twinkle" cx="1493.8" cy="554.3" r="1.19" opacity="0.58"/><circle class="star-twinkle" cx="1815.2" cy="46.8" r="1.73" opacity="0.7"/><circle class="star-twinkle" cx="1001.2" cy="494.7" r="1.87" opacity="0.42"/><circle class="star-twinkle" cx="919.6" cy="433.7" r="1.65" opacity="0.57"/></g>
    <g fill="#fbf6e8"><circle class="star-twinkle star-twinkle-bright" cx="1664.7" cy="129.1" r="1.86" opacity="0.85"/><circle class="star-twinkle star-twinkle-bright" cx="213.0" cy="318.5" r="2.31" opacity="0.84"/><circle class="star-twinkle star-twinkle-bright" cx="659.3" cy="995.0" r="2.22" opacity="0.81"/><circle class="star-twinkle star-twinkle-bright" cx="1141.3" cy="153.2" r="2.36" opacity="0.91"/><circle class="star-twinkle star-twinkle-bright" cx="1219.6" cy="782.8" r="2.38" opacity="0.75"/><circle class="star-twinkle star-twinkle-bright" cx="876.7" cy="274.8" r="2.07" opacity="0.81"/><circle class="star-twinkle star-twinkle-bright" cx="815.5" cy="149.4" r="2.14" opacity="0.87"/><circle class="star-twinkle star-twinkle-bright" cx="743.8" cy="203.5" r="2.54" opacity="0.72"/><circle class="star-twinkle star-twinkle-bright" cx="1530.6" cy="147.6" r="1.88" opacity="0.88"/><circle class="star-twinkle star-twinkle-bright" cx="1496.2" cy="583.0" r="2.27" opacity="0.84"/></g>

    <g stroke="#f4f4f2" stroke-width="0.6" opacity="0.5">
      <path d="M1664.7 122 v14 M1657.7 129 h14"/>
      <path d="M876.7 267 v16 M868.7 275 h16"/>
      <path d="M1219.6 775 v16 M1211.6 783 h16"/>
    </g>

    <rect width="1920" height="1080" fill="#030304" opacity="0.22"/>
  </g>
</svg>
